<mxfile host="app.diagrams.net" agent="Mozilla/5.0 (Windows NT 10.0; Win64; x64) AppleWebKit/537.36 (KHTML, like Gecko) Chrome/130.0.0.0 Safari/537.36" version="24.8.3">
  <diagram name="Página-1" id="D_B9XeDqA8Wg2V0yzFYr">
    <mxGraphModel dx="1050" dy="565" grid="1" gridSize="10" guides="1" tooltips="1" connect="1" arrows="1" fold="1" page="1" pageScale="1" pageWidth="827" pageHeight="1169" math="0" shadow="0">
      <root>
        <mxCell id="0" />
        <mxCell id="1" parent="0" />
        <mxCell id="frmEa14CfCh4Im8LZgaM-27" style="edgeStyle=orthogonalEdgeStyle;rounded=0;orthogonalLoop=1;jettySize=auto;html=1;entryX=0;entryY=0.5;entryDx=0;entryDy=0;" edge="1" parent="1" source="frmEa14CfCh4Im8LZgaM-1" target="frmEa14CfCh4Im8LZgaM-8">
          <mxGeometry relative="1" as="geometry" />
        </mxCell>
        <mxCell id="frmEa14CfCh4Im8LZgaM-29" style="edgeStyle=orthogonalEdgeStyle;rounded=0;orthogonalLoop=1;jettySize=auto;html=1;entryX=0;entryY=0.5;entryDx=0;entryDy=0;" edge="1" parent="1" source="frmEa14CfCh4Im8LZgaM-1" target="frmEa14CfCh4Im8LZgaM-7">
          <mxGeometry relative="1" as="geometry">
            <Array as="points">
              <mxPoint x="375" y="100" />
              <mxPoint x="375" y="60" />
            </Array>
          </mxGeometry>
        </mxCell>
        <mxCell id="frmEa14CfCh4Im8LZgaM-1" value="Funcionário de vendas" style="shape=umlActor;verticalLabelPosition=bottom;verticalAlign=top;html=1;outlineConnect=0;" vertex="1" parent="1">
          <mxGeometry x="100" y="90" width="30" height="60" as="geometry" />
        </mxCell>
        <mxCell id="frmEa14CfCh4Im8LZgaM-23" style="edgeStyle=orthogonalEdgeStyle;rounded=0;orthogonalLoop=1;jettySize=auto;html=1;" edge="1" parent="1" source="frmEa14CfCh4Im8LZgaM-2" target="frmEa14CfCh4Im8LZgaM-9">
          <mxGeometry relative="1" as="geometry">
            <Array as="points">
              <mxPoint x="370" y="260" />
              <mxPoint x="370" y="260" />
            </Array>
          </mxGeometry>
        </mxCell>
        <mxCell id="frmEa14CfCh4Im8LZgaM-24" style="edgeStyle=orthogonalEdgeStyle;rounded=0;orthogonalLoop=1;jettySize=auto;html=1;" edge="1" parent="1" source="frmEa14CfCh4Im8LZgaM-2" target="frmEa14CfCh4Im8LZgaM-10">
          <mxGeometry relative="1" as="geometry">
            <Array as="points">
              <mxPoint x="460" y="270" />
              <mxPoint x="460" y="370" />
            </Array>
          </mxGeometry>
        </mxCell>
        <mxCell id="frmEa14CfCh4Im8LZgaM-25" style="edgeStyle=orthogonalEdgeStyle;rounded=0;orthogonalLoop=1;jettySize=auto;html=1;" edge="1" parent="1" source="frmEa14CfCh4Im8LZgaM-2" target="frmEa14CfCh4Im8LZgaM-11">
          <mxGeometry relative="1" as="geometry">
            <Array as="points">
              <mxPoint x="380" y="280" />
              <mxPoint x="380" y="420" />
              <mxPoint x="660" y="420" />
            </Array>
          </mxGeometry>
        </mxCell>
        <mxCell id="frmEa14CfCh4Im8LZgaM-28" style="edgeStyle=orthogonalEdgeStyle;rounded=0;orthogonalLoop=1;jettySize=auto;html=1;" edge="1" parent="1" source="frmEa14CfCh4Im8LZgaM-2" target="frmEa14CfCh4Im8LZgaM-9">
          <mxGeometry relative="1" as="geometry">
            <Array as="points">
              <mxPoint x="360" y="240" />
              <mxPoint x="360" y="240" />
            </Array>
          </mxGeometry>
        </mxCell>
        <mxCell id="frmEa14CfCh4Im8LZgaM-2" value="Gerente de Estoque" style="shape=umlActor;verticalLabelPosition=bottom;verticalAlign=top;html=1;outlineConnect=0;" vertex="1" parent="1">
          <mxGeometry x="100" y="230" width="30" height="60" as="geometry" />
        </mxCell>
        <mxCell id="frmEa14CfCh4Im8LZgaM-3" value="Cliente" style="shape=umlActor;verticalLabelPosition=bottom;verticalAlign=top;html=1;outlineConnect=0;" vertex="1" parent="1">
          <mxGeometry x="100" y="340" width="30" height="60" as="geometry" />
        </mxCell>
        <mxCell id="frmEa14CfCh4Im8LZgaM-4" value="Sistema de pagamento" style="shape=umlActor;verticalLabelPosition=bottom;verticalAlign=top;html=1;outlineConnect=0;" vertex="1" parent="1">
          <mxGeometry x="100" y="480" width="30" height="60" as="geometry" />
        </mxCell>
        <mxCell id="frmEa14CfCh4Im8LZgaM-7" value="Registrar venda" style="ellipse;whiteSpace=wrap;html=1;" vertex="1" parent="1">
          <mxGeometry x="600" y="20" width="120" height="80" as="geometry" />
        </mxCell>
        <mxCell id="frmEa14CfCh4Im8LZgaM-8" value="Atualizar o Estoque" style="ellipse;whiteSpace=wrap;html=1;" vertex="1" parent="1">
          <mxGeometry x="600" y="110" width="120" height="80" as="geometry" />
        </mxCell>
        <mxCell id="frmEa14CfCh4Im8LZgaM-9" value="Consultar o estoque" style="ellipse;whiteSpace=wrap;html=1;" vertex="1" parent="1">
          <mxGeometry x="600" y="210" width="120" height="80" as="geometry" />
        </mxCell>
        <mxCell id="frmEa14CfCh4Im8LZgaM-10" value="Registrar a entrada de produtos" style="ellipse;whiteSpace=wrap;html=1;" vertex="1" parent="1">
          <mxGeometry x="600" y="330" width="120" height="80" as="geometry" />
        </mxCell>
        <mxCell id="frmEa14CfCh4Im8LZgaM-11" value="Gerar Relatórios" style="ellipse;whiteSpace=wrap;html=1;" vertex="1" parent="1">
          <mxGeometry x="600" y="450" width="120" height="80" as="geometry" />
        </mxCell>
        <mxCell id="frmEa14CfCh4Im8LZgaM-12" value="Processar pagamentos" style="ellipse;whiteSpace=wrap;html=1;" vertex="1" parent="1">
          <mxGeometry x="600" y="560" width="120" height="80" as="geometry" />
        </mxCell>
        <mxCell id="frmEa14CfCh4Im8LZgaM-26" style="edgeStyle=orthogonalEdgeStyle;rounded=0;orthogonalLoop=1;jettySize=auto;html=1;entryX=0;entryY=0.625;entryDx=0;entryDy=0;entryPerimeter=0;" edge="1" parent="1" source="frmEa14CfCh4Im8LZgaM-4" target="frmEa14CfCh4Im8LZgaM-12">
          <mxGeometry relative="1" as="geometry" />
        </mxCell>
        <mxCell id="frmEa14CfCh4Im8LZgaM-30" style="edgeStyle=orthogonalEdgeStyle;rounded=0;orthogonalLoop=1;jettySize=auto;html=1;entryX=0.037;entryY=0.768;entryDx=0;entryDy=0;entryPerimeter=0;" edge="1" parent="1" source="frmEa14CfCh4Im8LZgaM-3" target="frmEa14CfCh4Im8LZgaM-11">
          <mxGeometry relative="1" as="geometry">
            <Array as="points">
              <mxPoint x="115" y="460" />
              <mxPoint x="460" y="460" />
              <mxPoint x="460" y="480" />
              <mxPoint x="604" y="480" />
            </Array>
          </mxGeometry>
        </mxCell>
      </root>
    </mxGraphModel>
  </diagram>
</mxfile>
